<svg xmlns="http://www.w3.org/2000/svg" width="958" height="958" fill="none" viewBox="0 0 958 958">
  <g clip-path="url(#clip0)">
    <path fill="#fff" d="M576.194 937.573c179.519 0 325.048-145.504 325.048-324.993S755.713 287.586 576.194 287.586 251.147 433.091 251.147 612.58c0 179.489 145.528 324.993 325.047 324.993z"/>
    <path fill="#2F2F2F" d="M709.586 608.58c-12.593-1.783-23.781 8.27-33.618 14.593-21.241 13.566-39.996 29.295-58.102 47.022-11.188 10.972-26.322 25.565-30.321 41.347-1.838 7.297.432 15.675 1.891 22.809 2.54 12.431 6.432 24.538 10.323 36.591a418.075 418.075 0 0015.242 39.888c2.865 6.539 6 13.025 9.08 19.511 2.865 6.054 4.757 9.621 11.783 10.54 7.891 1.026 15.782-.163 23.619-.487 11.566-.432 23.133-1.567 34.537-3.513 15.08-2.54 30.267-5.297 44.698-10.431 13.35-4.811 28.646-12.269 36.375-24.538 16.593-26.376 26.646-56.319 32.159-86.856 1.621-8.81 3.189-17.782 3.134-26.808.055-7.946.757-16.107-4.972-22.214-10.269-11.026-22.43-20.16-35.023-28.43-18.647-12.107-38.159-25.781-60.805-29.024zM342.867 481.134c-11.729 6.215-20.917 21.025-27.781 31.888-13.728 21.62-24.808 46.59-29.997 71.723-3.945 19.241 4.648 37.996 11.08 55.778 6.27 17.133 17.187 30.699 29.132 44.157 3.027 3.459 6.864 6.054 9.891 9.459 3.459 3.837 7.837 7.459 12.377 9.999 3.243 1.837 6.162-.649 9.459-1.405 8.701-2.108 15.187-6.54 23.078-10.702 7.081-3.783 14.377-6.972 21.512-10.756 15.295-8.215 33.51-14.971 46.86-26.267 1.729-1.46 3.999-3.297 4.486-5.621 1.243-5.784-.487-13.296-.757-19.188-.324-8.269-.432-16.484-.486-24.754-.054-18.701.648-37.401.648-56.102.162-10.432 1.46-20.809.973-31.24-.865-15.512-17.62-21.025-30.213-24.16-17.674-4.378-35.456-10.377-53.508-12.593-7.459-.811-19.782-3.892-26.754-.216zM801.685 434.49c1.675-11.729-6.162-25.835-11.837-36.321-11.242-20.916-27.349-41.455-47.455-57.777-15.349-12.486-37.942-17.566-58.966-19.674-37.672-3.838-66.426-1.513-74.371-.27-7.999 1.243-15.512 3.675-19.782 8.972-8.432 10.269-9.891 24.97-11.674 37.617-2.595 18.053-4.865 36.645-2.487 54.806.379 3.243.865 7.512 2.433 10.377 2.972 5.297 9.242 7.945 15.457 10.702 32.213 14.214 93.666 49.4 103.665 54.156 14.918 7.189 30.808-2.378 41.834-10.107 15.296-10.756 32.321-20.863 45.833-33.024 5.567-4.972 16.323-12.539 17.35-19.457zM338.975 836.557c1.298 1.999 2.541 3.513 4.54 5.026a176.374 176.374 0 019.243 7.567c26.429 23.187 57.399 40.644 88.099 57.399 9.242 5.081 18.052 10.27 27.456 14.972 10.162 5.026 20.647 8.431 31.565 11.458 7.404 2.054 14.917 4.054 22.592 4.81 7.134.703 14.431 2.379 21.619 2.487 4.108.054 7.891-.108 11.891-.649-1.946-3.135-3.675-7.134-5.351-10.485a1423.103 1423.103 0 00-8.053-15.728c-3.135-6-5.567-12.269-8.756-18.215-2.486-4.54-5.729-9.242-10.215-11.89-5.999-3.568-11.728-7.081-18.268-9.729-23.89-9.729-45.293-23.457-67.507-36.321-11.242-6.54-22.268-13.512-32.861-21.133-5.676-4.053-11.188-8.269-17.188-11.89-1.243-.811-2.486-1.784-3.945-2-1.298-.216-3.297-.162-4.595 0a76.883 76.883 0 00-3.729.594c-7.783 1.622-16.214 3.676-24.268 5.459-7.675 1.73-16.268 2.324-23.619 5.135-2.864 1.081-2.54 2.702-1.405 5.189 1.729 3.891 4.27 7.458 6.918 10.701 1.784 2.324 4 4.486 5.837 7.243z"/>
    <path fill="#2F2F2F" d="M432.479 527.832a9.698 9.698 0 01-8.755-5.508 9.706 9.706 0 011.188-10.275c2.649-3.242 65.021-79.667 176.577-96.963a9.682 9.682 0 0111.026 8.108 9.684 9.684 0 01-1.77 7.192 9.673 9.673 0 01-6.337 3.834c-103.828 16.16-163.821 89.288-164.416 89.99-1.946 2.379-4.702 3.622-7.513 3.622zM409.455 867.148c-2.811 0-5.621-1.189-7.513-3.567-2.648-3.243-64.102-80.424-57.454-193.061.325-5.351 4.865-9.459 10.216-9.134 5.35.324 9.404 4.918 9.08 10.269-6.162 105.232 52.589 179.009 53.183 179.711 3.405 4.162 2.703 10.269-1.405 13.62-1.783 1.406-3.945 2.162-6.107 2.162zM482.528 905.198a9.65 9.65 0 01-9.62-8.864c-.433-5.35 3.513-10.053 8.864-10.485.918-.054 95.071-8.918 166.523-85.991a9.724 9.724 0 016.764-3.08 9.723 9.723 0 016.964 2.593c3.946 3.622 4.162 9.783.487 13.729-76.749 82.694-175.009 91.72-179.117 92.098-.324-.054-.594 0-.865 0zM347.893 516.211c-4.54 0-8.593-3.189-9.458-7.837-.541-2.702-12.755-66.75 13.566-142.634 1.784-5.08 7.243-7.783 12.323-5.999 5.027 1.783 7.729 7.242 6 12.323-24.647 71.02-13.026 131.932-12.864 132.581 1.027 5.243-2.378 10.377-7.675 11.404-.594.108-1.243.162-1.892.162zM629.54 357.255c-2 0-4.054-.649-5.729-1.946-.486-.325-50.914-36.915-125.338-45.077-5.297-.54-9.189-5.35-8.594-10.647.54-5.351 5.351-9.134 10.647-8.594 79.884 8.702 132.527 47.076 134.743 48.698a9.722 9.722 0 012 13.566c-1.838 2.648-4.756 4-7.729 4zM874.164 514.914c-2.811 0-5.621-1.243-7.567-3.621-47.238-58.427-105.07-80.857-105.611-81.073a9.725 9.725 0 01-5.675-12.485c1.892-5.027 7.513-7.513 12.485-5.675 2.595.973 63.345 24.538 113.826 87.018 3.405 4.161 2.703 10.269-1.459 13.62-1.73 1.513-3.891 2.216-5.999 2.216zM703.1 645.928c-.378 0-.865-.054-1.243-.108a9.646 9.646 0 01-8.089-7.092 9.636 9.636 0 01-.234-3.772c12.377-92.639.216-161.065.054-161.767-.973-5.243 2.486-10.324 7.783-11.243 5.296-1.026 10.323 2.541 11.296 7.783.486 2.919 12.863 72.155.054 167.821-.649 4.865-4.81 8.378-9.621 8.378zM619.001 725.055c-.325 0-.541 0-.865-.054-120.42-10.648-199.655-78.587-203.006-81.451a9.731 9.731 0 01-.973-13.675 9.68 9.68 0 0113.674-.973c.811.649 78.1 66.75 192.035 76.803a9.696 9.696 0 01-.865 19.35zM273.144 613.985c-8.161 0-17.079-1.027-25.403-4.216a9.724 9.724 0 01-5.675-12.485 9.829 9.829 0 0112.54-5.675c17.836 6.81 41.671-.162 41.941-.216 5.081-1.514 10.486 1.351 11.999 6.54 1.567 5.08-1.351 10.485-6.432 12.052-.81.217-13.566 4-28.97 4zM801.414 696.679a9.638 9.638 0 01-8.756-5.621c-2.27-4.81-.108-10.593 4.703-12.863.54-.271 56.859-26.917 99.719-88.316 3.027-4.432 9.08-5.513 13.458-2.432s5.459 9.08 2.432 13.458c-45.941 65.885-104.962 93.666-107.448 94.855-1.405.595-2.756.919-4.108.919zM801.414 860.284c-2.162 0-4.324-.703-6.161-2.108-22.16-17.458-43.617-49.184-44.536-50.481-3.027-4.54-1.838-10.702 2.702-13.783 4.486-3.026 10.702-1.837 13.729 2.757.216.27 20.646 30.429 40.374 45.941 4.27 3.405 5.026 9.621 1.675 13.945-1.999 2.378-4.864 3.729-7.783 3.729z"/>
    <path fill="#2F2F2F" d="M576.194 956.977c-189.926 0-344.397-154.471-344.397-344.397 0-189.873 154.471-344.397 344.397-344.397 189.927 0 344.397 154.524 344.397 344.343 0 189.98-154.524 344.451-344.397 344.451zm0-650.042c-168.523 0-305.644 137.121-305.644 305.645 0 168.523 137.067 305.644 305.59 305.644 168.524 0 305.645-137.121 305.645-305.644.054-168.524-137.121-305.645-305.591-305.645z"/>
    <g>
      <ellipse fill="#385CBA" rx="228.397" ry="140.153" transform="scale(-1 1) rotate(23.799 -1017.978 -890.411)"/>
      <path fill="#385CBA" d="M601.429 121.792l-417.953 184.33 51.32 116.361 417.952-184.329z"/>
      <path fill="#3E74FF" d="M316.413 80.131L31.675 407.661 502.33 356.97 800.325.339 316.413 80.131z"/>
      <path fill="#B4B43C" d="M274.377 381.738l30.844-3.099-1.635 187.359-29.203-.034-.006-184.226z"/>
      <path fill="#F1F155" d="M379 206.5l31.5-5-105.318 177.338-30.769 3.183L379 206.5z"/>
      <ellipse cx="289.376" cy="577.17" fill="#B4B43C" rx="22.829" ry="16.603" transform="rotate(-.185 289.376 577.17)"/>
      <path fill="#B4B43C" d="M289.281 548.114l35.563 87.051-70.562.228 34.999-87.279z"/>
    </g>
  </g>
  <defs>
    <clipPath id="clip0">
      <path fill="#fff" d="M0 0h958v958H0z"/>
    </clipPath>
  </defs>
</svg>
